# xmcd
#
# Track frame offsets:
#	150
#	21132
#	36741
#	62418
#	92758
#	112392
#	132787
#	155659
#	173496
#	190413
#	208737
#	230424
#	257759
#
# Disc length: 3838 seconds
#
# Revision: 2
# Processed by: cddbd v1.5.2PL0 Copyright (c) Steve Scherf et al.
# Submitted via: EasyCDDAExtractor 16.0.6.1
#
DISCID=b90efc0d
DTITLE=John Lee Hooker - B-015 The Best Of Friends
DYEAR=1998
DGENRE=Blues
TTITLE0=Boogie Chillen (Jim Keltner drums, Reggie McBride bass, Little Feat's 
TTITLE0=Bill Payne keyboards, Johnny Lee Schell and Rich Kirch guitars)
TTITLE1=This Is Hip (Ry Cooder)
TTITLE2=The Healer (Carlos Santana)
TTITLE3=I Cover The Waterfront (Van Morrison Hammond by Booker T. Jones)
TTITLE4=Boom Boom (Jimmie Vaughan)
TTITLE5=I'm In The Mood (Bonnie Raitt)
TTITLE6=Burnin' Hell (Ben Harper harp by Charlie Musselwhite)
TTITLE7=Tupelo
TTITLE8=Baby Lee (Robert Cray)
TTITLE9=Dimples (Los Lobos)
TTITLE10=Chill Out (Carlos Santana)
TTITLE11=Big Legs Tight Skirt (Ry Cooder keyb. Ike Turner)
TTITLE12=Don't Look Back (Van Morrison keyb. Charles Brown)
EXTD=YEAR: 1998
EXTT0=
EXTT1=
EXTT2=
EXTT3=
EXTT4=
EXTT5=
EXTT6=
EXTT7=
EXTT8=
EXTT9=
EXTT10=
EXTT11=
EXTT12=
PLAYORDER=
